{"title":"Breakthrough S01E02 720p H264 Eng-Aac Sub-Ita [TNT Village]","uid":12865969,"size":1008245133,"categoryP":"video","categoryS":"hd___tv_shows","magnet":"?xt=urn:btih:bf2d58c92c78e8288e92d5ba4f060869bba0e1dd&amp;dn=Breakthrough+S01E02+720p+H264+Eng-Aac+Sub-Ita+%5BTNT+Village%5D&amp;tr=udp%3A%2F%2Ftracker.leechers-paradise.org%3A6969&amp;tr=udp%3A%2F%2Fzer0day.ch%3A1337&amp;tr=udp%3A%2F%2Fopen.demonii.com%3A1337&amp;tr=udp%3A%2F%2Ftracker.coppersurfer.tk%3A6969&amp;tr=udp%3A%2F%2Fexodus.desync.com%3A6969","seeders":0,"leechers":1,"uploader":"Maskul93","files":1,"time":1448799088,"description":"Original post: http://forum.tntvillage.scambioetico.org/index.php?showtopic=480183\r\n\r\n[u][b][SIZE=14][color=blue]Breakthrough S01E02 - More Than Human[/SIZE][/color][/b][/u]\r\n[u][b][SIZE=7][color=red]HDTV - 720p - H264 - Eng Aac - Sub Ita[/SIZE][/color][/b][/u]\r\n[u][b][SIZE=7][color=black]Documentario National Geographic[/SIZE][/color][/b][/u]\r\n\r\n\r\n[b][color=green].: Descrizione :.[/color][/b]\r\n[b]Breakthrough[/b] è una serie di documentari prodotti da National Geographic Channel, che cerca di mettere in risalto come il progresso tecnico-scientifico vada ad affrontare problemi su larga scala. Vi è la presenza di Ron Howard, Brian Grazer e General Electric a supporto di tutto ciò.\r\n\r\nIl secondo episodio tratta il tema dell'uomo e la tecnologia, in particolar modo mette in evidenza i pregi ed i difetti di questa convivenza, tra robot, robopsicologi in stile Asimov ed esoscheletri. Buona visione! \r\n\r\n[b][color=green].: Dettagli Tecnici :.[/color][/b]\r\nGeneral\r\nUnique ID                                : 16138635659009560225008050373172574794 (0xC24302BC28DA9DACCC7C8174F26BA4A)\r\nComplete name                            : Breakthrough.S01E02.720p.x264.Eng.Sub.Ita.Maskul.mkv\r\nFormat                                   : Matroska\r\nFormat version                           : Version 4 / Version 2\r\nFile size                                : 962 MiB\r\nDuration                                 : 43mn 54s\r\nOverall bit rate                         : 3 061 Kbps\r\nMovie name                               : More Than Human\r\nEncoded date                             : UTC 2015-11-24 16:09:04\r\nWriting application                      : mkvmerge v8.5.2 ('Crosses') 64bit\r\nWriting library                          : libebml v1.3.3 + libmatroska v1.4.4\r\nDURATION                                 : 00:43:35.058000000\r\nNUMBER_OF_FRAMES                         : 889\r\nNUMBER_OF_BYTES                          : 40223\r\n_STATISTICS_WRITING_APP                  : mkvmerge v8.5.2 ('Crosses') 64bit\r\n_STATISTICS_WRITING_DATE_UTC             : 2015-11-24 16:09:04\r\n_STATISTICS_TAGS                         : BPS DURATION NUMBER_OF_FRAMES NUMBER_OF_BYTES\r\n\r\nVideo\r\nID                                       : 1\r\nFormat                                   : AVC\r\nFormat/Info                              : Advanced Video Codec\r\nFormat profile                           :   \r\nFormat settings, CABAC                   : Yes\r\nFormat settings, ReFrames                : 5 frames\r\nCodec ID                                 : V_MPEG4/ISO/AVC\r\nDuration                                 : 43mn 54s\r\nBit rate                                 : 2 616 Kbps\r\nWidth                                    : 1 280 pixels\r\nHeight                                   : 720 pixels\r\nDisplay aspect ratio                     : 16:9\r\nFrame rate mode                          : Constant\r\nFrame rate                               : 23.976 fps\r\nColor space                              : YUV\r\nChroma subsampling                       : 4:2:0\r\nBit depth                                : 8 bits\r\nScan type                                : Progressive\r\nBits/(Pixel*Frame)                       : 0.118\r\nStream size                              : 822 MiB (85%)\r\nWriting library                          : x264 core 148 r2638 7599210\r\nEncoding settings                        : cabac=1 / ref=5 / deblock=1:0:0 / analyse=0x3:0x113 / me=umh / subme=8 / psy=1 / psy_rd=1.00:0.00 / mixed_ref=1 / me_range=16 / chroma_me=1 / trellis=1 / 8x8dct=1 / cqm=0 / deadzone=21,11 / fast_pskip=1 / chroma_qp_offset=-2 / threads=12 / lookahead_threads=2 / sliced_threads=0 / nr=0 / decimate=1 / interlaced=0 / bluray_compat=0 / constrained_intra=0 / bframes=3 / b_pyramid=2 / b_adapt=2 / b_bias=0 / direct=3 / weightb=1 / open_gop=0 / weightp=2 / keyint=250 / keyint_min=23 / scenecut=40 / intra_refresh=0 / rc_lookahead=50 / rc=crf / mbtree=1 / crf=21.0 / qcomp=0.60 / qpmin=0 / qpmax=69 / qpstep=4 / ip_ratio=1.40 / aq=1:1.00\r\nDefault                                  : Yes\r\nForced                                   : No\r\n\r\nAudio\r\nID                                       : 2\r\nFormat                                   : AC-3\r\nFormat/Info                              : Audio Coding 3\r\nMode extension                           : CM (complete main)\r\nFormat settings, Endianness              : Big\r\nCodec ID                                 : A_AC3\r\nDuration                                 : 43mn 54s\r\nBit rate mode                            : Constant\r\nBit rate                                 : 384 Kbps\r\nChannel(s)                               : 6 channels\r\nChannel positions                        : Front: L C R, Side: L R, LFE\r\nSampling rate                            : 48.0 KHz\r\nBit depth                                : 16 bits\r\nCompression mode                         : Lossy\r\nStream size                              : 121 MiB (13%)\r\nDefault                                  : Yes\r\nForced                                   : No\r\n\r\nText\r\nID                                       : 3\r\nFormat                                   : UTF-8\r\nCodec ID                                 : S_TEXT/UTF8\r\nCodec ID/Info                            : UTF-8 Plain Text\r\nLanguage                                 : Italian\r\nDefault                                  : Yes\r\nForced                                   : Yes\r\n\r\n\r\n\r\n[b][color=green].: ScreenShot :.[/b][/color]\r\n\r\n\r\n\r\n[b][color=green].: Info Generali :. [/color][/b]\r\n[b]Anno:[/b] 2015\r\n[b]Genere: [/b] Documentario\r\n[b]Durata:[/b] 43m \r\n[b]Audio: [/b]Inglese.\r\n[b]Sottotitoli:[/b] Italiano.\r\n\r\n[b][color=green].: Dettagli :.[/color]\r\nOrario di seed e Banda disponibile: [color=red]Dalle 9.00 alle 24.00 tutti i giorni. Banda disponibile 1Mb/s.[/color][/b] \r\n\r\n:ok0: :ok0:  [color=purple][b][i]Powered by Maskul93.[/b][/i][/color] :ok0: :ok0:\r\n\r\nE un rigraziamento ai ragazzi di ItalianSubs! ;)","torrent":{"xt":"urn:btih:bf2d58c92c78e8288e92d5ba4f060869bba0e1dd","amp;dn":"Breakthrough+S01E02+720p+H264+Eng-Aac+Sub-Ita+%5BTNT+Village%5D","amp;tr":["udp%3A%2F%2Ftracker.leechers-paradise.org%3A6969","udp%3A%2F%2Fzer0day.ch%3A1337","udp%3A%2F%2Fopen.demonii.com%3A1337","udp%3A%2F%2Ftracker.coppersurfer.tk%3A6969","udp%3A%2F%2Fexodus.desync.com%3A6969"],"infoHash":"bf2d58c92c78e8288e92d5ba4f060869bba0e1dd","infoHashBuffer":{"type":"Buffer","data":[191,45,88,201,44,120,232,40,142,146,213,186,79,6,8,105,187,160,225,221]},"announce":[],"urlList":[]}}